<svg width="67" height="20" viewBox="0 0 67 20" fill="none" xmlns="http://www.w3.org/2000/svg">
<path d="M6.05267 6.55758V6.1124C4.56749 6.1124 2.99945 6.42975 2.99945 8.18072C2.99945 9.06777 3.45895 9.66832 4.24683 9.66832C4.82534 9.66832 5.34215 9.3135 5.66832 8.73609C6.07295 8.02534 6.05267 7.35758 6.05267 6.55758V6.55758ZM8.12408 11.5636C7.98832 11.6848 7.79185 11.6937 7.63868 11.6132C6.95702 11.0468 6.8357 10.7835 6.46017 10.2435C5.33333 11.3939 4.53554 11.7377 3.07438 11.7377C1.34656 11.7377 0 10.6711 0 8.53664C0 6.86942 0.904683 5.73444 2.19063 5.17906C3.30578 4.68871 4.86281 4.60165 6.05267 4.46612V4.20055C6.05267 3.71129 6.09014 3.13388 5.8043 2.71185C5.55262 2.33388 5.07328 2.17741 4.65124 2.17741C3.86887 2.17741 3.16915 2.57961 2.99945 3.41157C2.96419 3.59669 2.82865 3.77851 2.64353 3.78733L0.650138 3.57355C0.482645 3.53609 0.297521 3.39945 0.343802 3.1427C0.803306 0.727273 2.98512 0 4.93774 0C5.93719 0 7.24298 0.265565 8.03163 1.02259C9.03107 1.95482 8.93587 3.2 8.93587 4.55537V7.75647C8.93587 8.71846 9.33454 9.1405 9.71008 9.66061C9.84286 9.84463 9.87174 10.0672 9.70457 10.2061C9.28562 10.5554 8.54028 11.2055 8.12992 11.5691H8.12441L8.12408 11.5636ZM32.9806 6.55758V6.1124C31.4919 6.1124 29.9239 6.42975 29.9239 8.18072C29.9239 9.06777 30.3856 9.66832 31.1745 9.66832C31.7498 9.66832 32.2699 9.3135 32.596 8.73609C33.0004 8.02534 32.9806 7.35758 32.9806 6.55758V6.55758ZM35.0511 11.5636C34.9156 11.6848 34.7195 11.6937 34.5663 11.6132C33.8842 11.0468 33.7597 10.7835 33.3872 10.2435C32.261 11.3939 31.461 11.7377 30.0021 11.7377C28.271 11.7377 26.9277 10.6711 26.9277 8.53664C26.9277 6.86942 27.8291 5.73444 29.1172 5.17906C30.2324 4.68871 31.7894 4.60165 32.9806 4.46612V4.20055C32.9806 3.71129 33.0181 3.13388 32.7283 2.71185C32.4803 2.33388 32.001 2.17741 31.5756 2.17741C30.7933 2.17741 30.0969 2.57961 29.9261 3.41157C29.8919 3.59669 29.7564 3.77851 29.5679 3.78733L27.5779 3.57355C27.4104 3.53609 27.2219 3.39945 27.2715 3.1427C27.7277 0.727273 29.9117 0 31.8655 0C32.8649 0 34.1707 0.265565 34.9586 1.02259C35.9591 1.95482 35.8633 3.2 35.8633 4.55537V7.75647C35.8633 8.71846 36.2621 9.1405 36.6379 9.66061C36.7679 9.84463 36.7966 10.0672 36.6269 10.2061C36.2082 10.5554 35.4621 11.2055 35.0522 11.5691L35.0511 11.5636ZM60.347 11.5923H58.3018C58.0958 11.578 57.9316 11.4138 57.9316 11.211V0.666667C57.9492 0.473829 58.12 0.322865 58.3283 0.322865H60.2313C60.4109 0.333884 60.5586 0.452893 60.5982 0.618182V2.2303H60.6357C61.2109 0.787879 62.0164 0.100275 63.4357 0.100275C64.3569 0.100275 65.255 0.433058 65.8335 1.34325C66.3701 2.18623 66.3701 3.60441 66.3701 4.62479V11.2606C66.347 11.4457 66.1773 11.5923 65.9745 11.5923H63.915C63.7277 11.578 63.5712 11.4391 63.5514 11.2606V5.53499C63.5514 4.38237 63.6836 2.69532 62.2654 2.69532C61.7652 2.69532 61.3068 3.0303 61.0776 3.53829C60.7889 4.18292 60.7514 4.82424 60.7514 5.53499V11.211C60.7514 11.4226 60.5696 11.5923 60.3503 11.5923H60.347ZM51.697 0.100275C54.7449 0.100275 56.3945 2.71846 56.3945 6.04628C56.3945 9.26171 54.5719 11.8127 51.697 11.8127C48.7041 11.8127 47.0755 9.19449 47.0755 5.93388C47.0755 2.65124 48.7251 0.100275 51.697 0.100275V0.100275ZM51.7146 2.25344C50.2006 2.25344 50.1058 4.31515 50.1058 5.6011C50.1058 6.88926 50.086 9.63967 51.697 9.63967C53.2893 9.63967 53.3642 7.42149 53.3642 6.06942C53.3642 5.17906 53.3267 4.1168 53.0579 3.27273C52.8275 2.53884 52.368 2.25344 51.7146 2.25344ZM13.7344 11.5923H11.6804C11.4843 11.578 11.3278 11.4314 11.3135 11.243V0.701928C11.3135 0.490358 11.4898 0.322865 11.7091 0.322865H13.6242C13.8237 0.333884 13.9824 0.484848 13.9967 0.675482V2.05399H14.0342C14.5344 0.721763 15.4733 0.100275 16.7383 0.100275C18.0242 0.100275 18.8275 0.721763 19.405 2.05399C19.9019 0.721763 21.0314 0.100275 22.2424 0.100275C23.103 0.100275 24.0452 0.456198 24.6193 1.25289C25.2694 2.13994 25.1372 3.4292 25.1372 4.55868V11.211C25.1372 11.4226 24.9609 11.5923 24.7405 11.5923H22.6898C22.4848 11.578 22.3196 11.4138 22.3196 11.211V5.62424C22.3196 5.17906 22.3603 4.07052 22.2623 3.64848C22.1091 2.93994 21.6496 2.7416 21.0545 2.7416C20.5576 2.7416 20.0375 3.07328 19.827 3.60441C19.6165 4.13664 19.6364 5.0259 19.6364 5.62424V11.211C19.6364 11.4226 19.4601 11.5923 19.2408 11.5923H17.1901C16.9818 11.578 16.8198 11.4138 16.8198 11.211V5.62424C16.8198 4.44848 17.0127 2.71846 15.5537 2.71846C14.0782 2.71846 14.1355 4.40551 14.1355 5.62424V11.211C14.1355 11.4226 13.9592 11.5923 13.7399 11.5923H13.7344ZM38.3625 2.18402V0.675482C38.3625 0.447383 38.5355 0.294215 38.7438 0.294215H45.4953C45.7113 0.294215 45.8854 0.450689 45.8854 0.675482V1.96694C45.8854 2.18402 45.7003 2.46722 45.3763 2.9146L41.8777 7.90964C43.178 7.87769 44.5499 8.07163 45.7289 8.73609C45.9945 8.88595 46.0672 9.10523 46.0871 9.32231V10.9311C46.0871 11.1504 45.8446 11.4083 45.5901 11.2749C43.5129 10.1862 40.7537 10.0672 38.4573 11.2871C38.2237 11.4138 37.978 11.1592 37.978 10.9399V9.41157C37.978 9.16584 37.978 8.74711 38.227 8.37466L42.2799 2.56198H38.7526C38.5355 2.56198 38.3625 2.40882 38.3625 2.18402V2.18402ZM42.7769 13.8061C42.2854 13.1758 39.5174 13.5085 38.2755 13.6551C37.8975 13.7014 37.8391 13.3719 38.1807 13.135C40.3846 11.5846 44.0011 12.032 44.4231 12.5521C44.8452 13.0744 44.3129 16.7008 42.2424 18.4309C41.924 18.6964 41.6209 18.5554 41.762 18.2028C42.2281 17.0413 43.2705 14.4386 42.7769 13.8061V13.8061ZM41.1736 15.6397C41.8116 15.1658 41.2661 14.4617 40.6127 14.7383C36.2909 16.573 31.5912 17.4567 27.3179 17.4567C20.9829 17.4567 14.8496 15.7212 9.88915 12.8353C9.45587 12.5807 9.13212 13.0259 9.49355 13.3521C14.0893 17.503 20.1653 20 26.9135 20C31.7267 20 37.3168 18.4826 41.1736 15.6397V15.6397Z" fill="#333333"/>
</svg>
