<svg width="50" height="20" viewBox="0 0 50 20" fill="none" xmlns="http://www.w3.org/2000/svg">
<path d="M31.5867 10.6043C29.3177 10.6745 27.9064 11.0877 27.9064 12.577C27.9064 13.5439 28.6784 14.5887 30.6355 14.5887C33.2632 14.5887 34.6589 13.154 34.6589 10.8148V10.5575C33.7388 10.5575 32.6082 10.5653 31.5867 10.6043V10.6043ZM37.1618 13.6998C37.1618 14.425 37.1852 15.1501 37.2398 15.7895H34.9162C34.8538 15.2515 34.8304 14.729 34.8304 14.2144C33.575 15.7583 32.078 16.2027 30.0039 16.2027C26.924 16.2027 25.2788 14.5731 25.2788 12.694C25.2788 9.96491 27.5244 9.00585 31.4074 8.92008C32.4756 8.89669 33.6686 8.88889 34.6589 8.88889V8.62378C34.6589 6.79922 33.4893 6.05068 31.462 6.05068C29.9571 6.05068 28.8421 6.67446 28.7329 7.75049H26.1053C26.386 5.06823 29.2008 4.38986 31.6803 4.38986C34.6511 4.38986 37.1618 5.44249 37.1618 8.58479V13.6998V13.6998ZM9.94932 9.27095C9.76998 5.00585 3.12671 4.8577 2.58869 9.27095H9.94932ZM2.54191 10.9396C2.81482 15.4854 8.71735 15.4152 9.65302 12.6238H12.2339C11.7349 15.306 8.88109 16.2183 6.43275 16.2183C1.97271 16.2183 0 13.7622 0 10.4483C0 6.79922 2.04289 4.39766 6.47173 4.39766C10.0039 4.39766 12.5848 6.24561 12.5848 10.2768V10.9396H2.54191V10.9396ZM18.9942 14.5029C21.3177 14.5029 22.9084 12.8265 22.9084 10.308C22.9084 7.78168 21.3177 6.11306 18.9942 6.11306C16.6862 6.11306 15.0799 7.78168 15.0799 10.308C15.0799 12.8265 16.6862 14.5029 18.9942 14.5029ZM12.5848 0H15.0877V6.2846C16.3119 4.82651 18.0039 4.39766 19.6647 4.39766C22.4483 4.39766 25.5439 6.2768 25.5439 10.3392C25.5439 13.7388 23.0877 16.2183 19.6179 16.2183C17.8012 16.2183 16.1014 15.5711 15.0409 14.2768C15.0409 14.7914 15.0097 15.306 14.9552 15.7973H12.499C12.538 15.0019 12.5848 14.0195 12.5848 13.2164V0V0ZM49.8947 4.81092L42.1598 20H39.3606L41.5829 15.7817L35.7661 4.81092H38.6901L42.9708 13.3801L47.2437 4.81092H49.8947Z" fill="#333333"/>
</svg>
