<svg width="70" height="20" viewBox="0 0 70 20" fill="none" xmlns="http://www.w3.org/2000/svg">
<path fill-rule="evenodd" clip-rule="evenodd" d="M49.285 7.5836C47.6826 7.5836 46.7748 8.99347 46.7748 8.99347H46.7403L46.877 7.72087H44.7803C44.6775 8.58057 44.4883 9.88652 44.299 10.8671L42.6485 19.5516H45.022L45.6744 16.046H45.7259C45.7259 16.046 46.2126 16.3578 47.1188 16.3578C49.9024 16.3578 51.7235 13.503 51.7235 10.6155C51.7235 9.01589 51.018 7.58907 49.2789 7.58907L49.285 7.5836ZM40.0011 7.5836C37.1475 7.5836 35.2564 10.1622 35.2564 13.0333C35.2564 14.873 36.3906 16.3512 38.5223 16.3512C41.3251 16.3512 43.2157 13.841 43.2157 10.8988C43.2157 9.198 42.2187 7.57923 40.0011 7.57923V7.5836ZM24.2017 11.1252C23.6001 10.7987 23.2906 10.5236 23.2906 10.1452C23.2906 9.66394 23.7204 9.35769 24.3909 9.35769C25.1719 9.35769 25.8691 9.68582 25.8691 9.68582L26.4193 8.00142C26.4193 8.00142 25.9107 7.60603 24.4232 7.60603C22.3505 7.60603 20.9122 8.79276 20.9122 10.4607C20.9122 11.4058 21.5821 12.1276 22.4763 12.6428C23.1982 13.0557 23.4563 13.3483 23.4563 13.7781C23.4563 14.2249 23.0954 14.5859 22.4243 14.5859C21.4257 14.5859 20.4813 14.0702 20.4813 14.0702L19.901 15.7502C19.901 15.7502 20.7733 16.3353 22.2395 16.3353C24.3723 16.3353 25.9014 15.287 25.9014 13.3959C25.9014 12.3819 25.1281 11.6595 24.1995 11.1263L24.2017 11.1252ZM51.7951 16.1795H54.1675L55.783 7.77283H53.3931L51.7951 16.1795V16.1795ZM61.8178 7.75533H60.1663L60.2538 7.36157C60.3905 6.55766 60.8717 5.83577 61.6631 5.83577C62.0853 5.83577 62.4194 5.95609 62.4194 5.95609L62.8843 4.09942C62.8843 4.09942 62.4708 3.89325 61.5936 3.89325C60.7514 3.89325 59.9092 4.13388 59.2732 4.68459C58.4655 5.37147 58.0865 6.36898 57.8978 7.3654L57.8267 7.76134H56.7275L56.3829 9.54964H57.4822L56.2298 16.1855H58.5994L59.8545 9.5491H61.4875L61.8135 7.76079L61.8178 7.75533ZM47.0154 14.5635C46.3996 14.5635 46.0354 14.2189 46.0354 14.2189L46.4308 12.0019C46.7097 10.5236 47.4808 9.54363 48.3066 9.54363C49.0285 9.54363 49.2527 10.2163 49.2527 10.8507C49.2527 12.3819 48.3394 14.564 47.0159 14.564L47.0154 14.5635ZM38.8319 14.529C38.0241 14.529 37.6801 13.8416 37.6801 12.9813C37.6801 11.6234 38.3856 9.40581 39.6741 9.40581C40.5163 9.40581 40.7919 10.1277 40.7919 10.8277C40.7919 12.2879 40.0864 14.5246 38.8319 14.5246V14.529ZM67.5251 7.77283C67.5251 7.77283 66.0419 11.5097 65.3758 13.549H65.3419C65.2982 12.8927 64.7622 7.77283 64.7622 7.77283H62.2685L63.6958 15.4921C63.7286 15.6638 63.7122 15.7666 63.645 15.8875C63.3699 16.4234 62.9056 16.9375 62.3543 17.3148C61.9086 17.6429 61.4099 17.8508 61.0145 17.9875L61.668 20C62.1492 19.8961 63.1446 19.5023 63.9868 18.7094C65.0696 17.6976 66.0687 16.1335 67.0985 14.0007L70.0008 7.77665H67.5262L67.5251 7.77283ZM32.6942 7.5836C31.6453 7.5836 30.8206 8.08236 30.184 8.8387L30.1501 8.8212L31.0634 4.0595H28.6899L26.3876 16.1795H28.761L29.554 12.0363C29.8657 10.4668 30.6724 9.50425 31.4298 9.50425C31.9614 9.50425 32.1681 9.86519 32.1681 10.3804C32.1681 10.7068 32.1331 11.1022 32.0642 11.4304L31.1673 16.1762H33.5408L34.4678 11.2761C34.5717 10.761 34.6406 10.1425 34.6406 9.73011C34.6406 8.38861 33.9351 7.58087 32.6991 7.58087L32.6942 7.5836ZM55.1131 4.17981C54.3567 4.17981 53.7546 4.78138 53.7546 5.55467C53.7546 6.26015 54.202 6.74141 54.8724 6.74141H54.9064C55.6446 6.74141 56.279 6.24265 56.2954 5.366C56.2954 4.67802 55.8306 4.17927 55.1087 4.17927L55.1131 4.17981ZM9.08753 6.97657L8.34377 9.18925C8.34377 9.18925 7.69134 8.84143 6.89235 8.84143C5.72093 8.84143 5.66186 9.57644 5.66186 9.76183C5.66186 10.7725 8.29619 11.1597 8.29619 13.5271C8.29619 15.3898 7.11493 16.5896 5.52241 16.5896C3.61051 16.5896 2.63323 15.3996 2.63323 15.3996L3.14512 13.7043C3.14512 13.7043 4.15138 14.5656 4.99904 14.5656C5.55139 14.5656 5.78108 14.1298 5.78108 13.8109C5.78108 12.493 3.6209 12.4328 3.6209 10.2672C3.6209 8.44385 4.92795 6.67961 7.57157 6.67961C8.58877 6.67961 9.0919 6.9711 9.0919 6.9711L9.08753 6.97657ZM7.909 0.675399C8.01728 0.675399 8.12666 0.71204 8.23166 0.784775C7.42446 1.16376 6.55984 2.12026 6.19453 4.03052L4.65615 4.5063C5.08436 3.04996 6.09992 0.675399 7.909 0.675399V0.675399ZM8.65713 1.38361C8.81245 1.7719 8.91307 2.32807 8.91307 3.07894V3.18832L6.96618 3.79153C7.34134 2.34557 8.04353 1.64666 8.65768 1.38361H8.65713ZM10.5149 2.69284L9.57261 2.98433V2.78199C9.57261 2.15854 9.48675 1.6576 9.34839 1.26001C9.90512 1.33002 10.2764 1.96385 10.5149 2.69284ZM13.2947 3.52574C13.2947 3.52574 14.7959 3.63676 14.8664 3.64278C14.9375 3.65371 15.0234 3.70293 15.0371 3.80137C15.0502 3.89981 17.1682 18.2226 17.1682 18.2226L11.1345 19.5237L0 17.4379C0 17.4379 1.429 6.38703 1.48314 5.9971C1.55424 5.48303 1.57174 5.46553 2.11752 5.29436L3.88012 4.74748C4.25747 3.15004 5.46061 0 7.979 0C8.30713 0 8.68831 0.176643 8.9962 0.582976C9.02628 0.581335 9.05636 0.580241 9.08698 0.580241C10.1676 0.580241 10.7823 1.50447 11.1301 2.50526L11.7137 2.32479C11.7957 2.30292 12.0199 2.26464 12.1348 2.37948L12.9611 3.19926L13.2947 3.52957V3.52574Z" fill="#333333"/>
</svg>
